<svg width="8" height="11" viewBox="0 0 8 11" fill="none" xmlns="http://www.w3.org/2000/svg">
<path fill-rule="evenodd" clip-rule="evenodd" d="M6.5 0.5L4 3L1.5 0.5C1.22386 0.223858 0.776142 0.223858 0.5 0.5C0.223858 0.776142 0.223857 1.22386 0.5 1.5L3.29289 4.29289C3.68342 4.68342 4.31658 4.68342 4.70711 4.29289L7.5 1.5C7.77614 1.22386 7.77614 0.776142 7.5 0.5C7.22386 0.223858 6.77614 0.223858 6.5 0.5ZM6.5 6.5L4 9L1.5 6.5C1.22386 6.22386 0.776142 6.22386 0.5 6.5C0.223858 6.77614 0.223857 7.22386 0.5 7.5L3.29289 10.2929C3.68342 10.6834 4.31658 10.6834 4.70711 10.2929L7.5 7.5C7.77614 7.22386 7.77614 6.77614 7.5 6.5C7.22386 6.22386 6.77614 6.22386 6.5 6.5Z" fill="#41F6D7"/>
</svg>
